# xmcd
#
# Track frame offsets:
#      150
#      20494
#      37614
#      55001
#      73000
#      88682
#      108106
#      132312
#      152083
#      170869
#      184475
#      204122
#      224550
#      241616
# 
# Disc length: 3512 seconds
#
# Revision: 1
# Processed by: cddbd v1.5.1PL0 Copyright (c) Steve Scherf et al.
#
# Submitted via: FreeRIP 1.21
#
DISCID=ba0db60e
DTITLE=Juvinile Skip Wacko - Beginning of the End
DYEAR=2004
DGENRE=Rap
TTITLE0=Nolia Clap
TTITLE1=Don't Start
TTITLE2=What's Up  feat. Kango Slim of P.N.C.
TTITLE3=Who The Fuck Is This
TTITLE4=Juvie, Wacko, Skip (3 Bad Brothers)
TTITLE5=Solja
TTITLE6=What's Your Brains Like  Feat. Kango Slim
TTITLE7=War Shit
TTITLE8=That's All That I KNow
TTITLE9=At U Bithces
TTITLE10=The Best Years  feat. Kango Slim
TTITLE11=Nolia Clap (Remix)
TTITLE12=What's Up (Remix) feat. Ms. Tee,  Zuse, and Kango Slim
TTITLE13=Ride Tonight  feat. Meanor, Kango Slim, Ms. Tee
EXTD=Rap A Lot Records
EXTT0=
EXTT1=
EXTT2=
EXTT3=
EXTT4=
EXTT5=
EXTT6=
EXTT7=
EXTT8=
EXTT9=
EXTT10=
EXTT11=
EXTT12=
EXTT13=
PLAYORDER=
